<?xml version="1.0" encoding="UTF-8"?>
<!DOCTYPE svg PUBLIC "-//W3C//DTD SVG 1.1//EN" "http://www.w3.org/Graphics/SVG/1.1/DTD/svg11.dtd">
<!-- Creator: CorelDRAW 2019 (64-Bit) -->
<svg xmlns="http://www.w3.org/2000/svg" xml:space="preserve" width="297mm" height="420mm" version="1.1" style="shape-rendering:geometricPrecision; text-rendering:geometricPrecision; image-rendering:optimizeQuality; fill-rule:evenodd; clip-rule:evenodd"
viewBox="0 0 29700 42000"
 xmlns:xlink="http://www.w3.org/1999/xlink"
 xmlns:xodm="http://www.corel.com/coreldraw/odm/2003">
 <defs>
  <style type="text/css">
   <![CDATA[
    .fil1 {fill:white}
    .fil0 {fill:white;fill-rule:nonzero}
   ]]>
  </style>
 </defs>
 <g id="Layer_x0020_1">
  <metadata id="CorelCorpID_0Corel-Layer"/>
  <polygon class="fil0" points="5100.96,23816.74 9172.6,23816.74 9172.6,24722.73 7584.44,24722.73 7584.44,30446.48 6678.45,30446.48 6678.45,24722.73 5100.96,24722.73 "/>
  <path id="1" class="fil0" d="M9015.45 26151l905.99 0 0 2419.54c0,746.11 326.87,1119.17 982.38,1119.17 291.34,0 522.28,-99.48 692.82,-298.45 168.77,-200.74 254.04,-474.31 254.04,-820.72l0 -2419.54 905.99 0 0 2565.21c0,538.27 -175.87,980.6 -527.61,1327.01 -349.96,346.41 -799.4,520.51 -1344.78,520.51 -557.81,0 -1007.25,-174.1 -1351.88,-520.51 -344.63,-346.41 -516.95,-799.4 -516.95,-1358.99l0 -2533.23z"/>
  <path id="2" class="fil0" d="M14400.85 26151l0 863.36 0 0c431.68,-660.84 985.93,-991.26 1659.21,-991.26 554.26,0 1030.35,222.06 1430.05,664.39 399.7,444.12 598.67,971.73 598.67,1588.16 0,621.76 -202.52,1158.25 -609.33,1609.47 -405.03,453 -882.9,678.61 -1435.38,678.61 -317.98,0 -625.31,-83.5 -918.43,-250.48 -291.34,-165.21 -534.71,-406.81 -724.79,-723.02l0 0 0 2870.75 -906 0 0 -6309.98 906 0zm2749.96 2124.65c0,-380.16 -142.12,-712.36 -426.35,-994.82 -284.24,-284.23 -619.99,-426.35 -1005.48,-426.35 -390.82,0 -730.12,140.34 -1016.13,422.8 -286.01,282.46 -429.91,614.65 -429.91,998.37 0,392.6 142.12,733.68 424.58,1023.24 282.45,289.56 616.43,433.45 1001.92,433.45 397.93,0 740.78,-142.11 1025.02,-428.12 284.23,-286.01 426.35,-628.87 426.35,-1028.57z"/>
  <path id="3" class="fil0" d="M22395.86 26151l906 0 0 4295.48 -906 0 0 -852.7c-442.33,646.63 -989.48,969.95 -1643.22,969.95 -566.69,0 -1051.66,-222.06 -1453.14,-667.95 -401.48,-444.12 -602.22,-984.16 -602.22,-1620.13 0,-602.22 202.51,-1128.05 607.55,-1577.5 405.03,-449.44 881.12,-675.05 1426.49,-675.05 337.53,0 657.29,92.37 961.07,278.9 302,184.75 536.49,426.35 703.47,723.02l0 -874.02zm127.91 2154.85c0,-392.6 -142.12,-730.13 -424.57,-1009.03 -282.46,-280.68 -621.76,-421.02 -1016.14,-421.02 -385.49,0 -721.24,138.56 -1007.25,417.47 -286.01,278.9 -429.9,605.77 -429.9,982.38 0,406.81 140.34,753.22 419.24,1039.23 278.91,286.01 618.21,428.12 1017.91,428.12 394.38,0 733.68,-142.11 1016.14,-426.35 282.45,-282.45 424.57,-619.98 424.57,-1010.8z"/>
  <path id="4" class="fil0" d="M24016.95 24744.05c0,-188.31 69.28,-349.96 207.84,-486.75 140.34,-136.79 303.78,-206.07 495.64,-206.07 188.3,0 349.96,69.28 486.75,206.07 136.78,136.79 206.06,298.44 206.06,486.75 0,190.08 -69.28,353.51 -206.06,490.3 -136.79,135.01 -298.45,202.52 -486.75,202.52 -191.86,0 -355.3,-67.51 -495.64,-202.52 -138.56,-136.79 -207.84,-300.22 -207.84,-490.3zm255.81 1406.95l905.99 0 0 4295.48 -905.99 0 0 -4295.48z"/>
  <circle class="fil1" cx="26890.59" cy="29719.16" r="916.51"/>
  <g id="_1739231381072">
   <path class="fil1" d="M12625.55 7841.12c-1821.14,757.03 -1966.35,5123.45 -1892.97,6743.81 36.87,815.43 3223.55,6164.76 3566.98,7461.28 1366.69,-569.32 2757.2,-4178.95 1901.31,-5315.91 -1291.78,-1716.91 -3066.83,-6628.95 -3575.32,-8889.18z"/>
   <path class="fil1" d="M10871 18285.22c-110.38,128.82 -89.12,89 -77.34,457.02l7.42 1361.95 -14.08 1379.36c-304.25,-42.13 -222.81,5.13 -341.9,-270.82 -1180.5,-2735.18 -2551.29,-3080.02 -5183.25,-3644.47l-100.77 -2723.64c-1683.62,96.93 -2761.55,1090.73 -2808.16,2802.91l2747.97 71.19 0 5506.2c1302.41,0 2604.82,0 3907.22,0 1624.33,0 2214.39,120.11 3662.13,-247.78 -186.95,-638.85 -1570.93,-3377.35 -1799.24,-4691.92z"/>
   <path class="fil1" d="M13434.2 7162.57c587.75,1635.6 2385.2,4471.68 3030.45,6113.16l9.09 -6872.5c-1140.42,-107.56 -2230.77,314.24 -3039.54,759.34z"/>
  </g>
 </g>
</svg>
